<svg xmlns="http://www.w3.org/2000/svg" width="520" height="120" viewBox="0 0 520 120">
  <defs>
    <linearGradient id="txt" x1="0" y1="0" x2="1" y2="0">
      <stop offset="0%" stop-color="#FFFFFF" stop-opacity="0.92"/>
      <stop offset="60%" stop-color="#C9D4FF" stop-opacity="0.92"/>
      <stop offset="100%" stop-color="#9F8BFF" stop-opacity="0.92"/>
    </linearGradient>
  </defs>

  <!-- mark -->
  <g transform="translate(18,18)">
    <svg width="84" height="84" viewBox="0 0 84 84">
      <defs>
        <radialGradient id="g2" cx="35%" cy="30%" r="75%">
          <stop offset="0%" stop-color="#FFFFFF" stop-opacity="0.95"/>
          <stop offset="55%" stop-color="#B7C6FF" stop-opacity="0.85"/>
          <stop offset="100%" stop-color="#8F7CFF" stop-opacity="0.70"/>
        </radialGradient>
        <filter id="glow2" x="-40%" y="-40%" width="180%" height="180%">
          <feGaussianBlur stdDeviation="2.2" result="b"/>
          <feMerge>
            <feMergeNode in="b"/>
            <feMergeNode in="SourceGraphic"/>
          </feMerge>
        </filter>
      </defs>
      <g stroke="url(#g2)" stroke-width="2.2" stroke-linecap="round" stroke-linejoin="round" filter="url(#glow2)" opacity="0.95">
        <path d="M20 14 L20 70"/>
        <path d="M20 42 L56 18"/>
        <path d="M20 42 L58 64"/>
        <path d="M20 42 L38 42"/>
      </g>
      <g fill="url(#g2)" filter="url(#glow2)">
        <circle cx="20" cy="14" r="3.2"/>
        <circle cx="20" cy="28" r="2.3"/>
        <circle cx="20" cy="42" r="3.0"/>
        <circle cx="20" cy="56" r="2.3"/>
        <circle cx="20" cy="70" r="3.2"/>
        <circle cx="56" cy="18" r="3.1"/>
        <circle cx="40" cy="32" r="2.2"/>
        <circle cx="38" cy="42" r="2.6"/>
        <circle cx="46" cy="52" r="2.2"/>
        <circle cx="58" cy="64" r="3.1"/>
      </g>
    </svg>
  </g>

  <!-- wordmark -->
  <text x="124" y="78" font-family="ui-serif, Georgia, 'Times New Roman', serif" font-size="56" letter-spacing="-0.6" fill="url(#txt)">
    Kiron Code
  </text>
</svg>
